<mxfile host="Electron" modified="2025-10-30T12:26:08.158Z" agent="Mozilla/5.0 (Windows NT 10.0; Win64; x64) AppleWebKit/537.36 (KHTML, like Gecko) draw.io/23.1.5 Chrome/120.0.6099.109 Electron/28.1.0 Safari/537.36" etag="rgBpOSdm8z_NUtmu3cSY" version="23.1.5" type="device">
  <diagram name="Страница — 1" id="Zv-FywmHb0zYgs4QKw_f">
    <mxGraphModel dx="1434" dy="844" grid="0" gridSize="10" guides="1" tooltips="1" connect="1" arrows="1" fold="1" page="1" pageScale="1" pageWidth="827" pageHeight="1169" math="0" shadow="0">
      <root>
        <mxCell id="0" />
        <mxCell id="1" parent="0" />
        <mxCell id="kDlvyfv9U4wQrPy9hs1n-1" value="Гость" style="shape=umlActor;verticalLabelPosition=bottom;verticalAlign=top;html=1;outlineConnect=0;" parent="1" vertex="1">
          <mxGeometry x="169" y="116" width="35" height="70" as="geometry" />
        </mxCell>
        <mxCell id="kDlvyfv9U4wQrPy9hs1n-2" value="Пользователь" style="shape=umlActor;verticalLabelPosition=bottom;verticalAlign=top;html=1;outlineConnect=0;" parent="1" vertex="1">
          <mxGeometry x="169" y="226" width="35" height="70" as="geometry" />
        </mxCell>
        <mxCell id="kDlvyfv9U4wQrPy9hs1n-50" style="edgeStyle=orthogonalEdgeStyle;rounded=0;orthogonalLoop=1;jettySize=auto;html=1;endArrow=block;endFill=0;" parent="1" source="kDlvyfv9U4wQrPy9hs1n-3" target="kDlvyfv9U4wQrPy9hs1n-2" edge="1">
          <mxGeometry relative="1" as="geometry" />
        </mxCell>
        <mxCell id="kDlvyfv9U4wQrPy9hs1n-3" value="Менеджер" style="shape=umlActor;verticalLabelPosition=bottom;verticalAlign=top;html=1;outlineConnect=0;" parent="1" vertex="1">
          <mxGeometry x="169" y="416" width="35" height="70" as="geometry" />
        </mxCell>
        <mxCell id="kDlvyfv9U4wQrPy9hs1n-46" value="" style="edgeStyle=orthogonalEdgeStyle;rounded=0;orthogonalLoop=1;jettySize=auto;html=1;endArrow=block;endFill=0;" parent="1" source="kDlvyfv9U4wQrPy9hs1n-4" target="kDlvyfv9U4wQrPy9hs1n-3" edge="1">
          <mxGeometry relative="1" as="geometry">
            <Array as="points">
              <mxPoint x="187" y="506" />
              <mxPoint x="187" y="506" />
            </Array>
          </mxGeometry>
        </mxCell>
        <mxCell id="kDlvyfv9U4wQrPy9hs1n-4" value="Администратор" style="shape=umlActor;verticalLabelPosition=bottom;verticalAlign=top;html=1;outlineConnect=0;" parent="1" vertex="1">
          <mxGeometry x="169" y="526" width="35" height="70" as="geometry" />
        </mxCell>
        <mxCell id="kDlvyfv9U4wQrPy9hs1n-9" value="Просмотр списка мероприятий и вакансий" style="ellipse;whiteSpace=wrap;html=1;" parent="1" vertex="1">
          <mxGeometry x="249" y="146" width="120" height="60" as="geometry" />
        </mxCell>
        <mxCell id="kDlvyfv9U4wQrPy9hs1n-10" value="Вход в личный кабинет" style="ellipse;whiteSpace=wrap;html=1;" parent="1" vertex="1">
          <mxGeometry x="249" y="66" width="120" height="60" as="geometry" />
        </mxCell>
        <mxCell id="kDlvyfv9U4wQrPy9hs1n-11" value="Авторизация" style="ellipse;whiteSpace=wrap;html=1;" parent="1" vertex="1">
          <mxGeometry x="429" y="26" width="120" height="60" as="geometry" />
        </mxCell>
        <mxCell id="kDlvyfv9U4wQrPy9hs1n-12" value="Регистрация" style="ellipse;whiteSpace=wrap;html=1;" parent="1" vertex="1">
          <mxGeometry x="429" y="106" width="120" height="60" as="geometry" />
        </mxCell>
        <mxCell id="kDlvyfv9U4wQrPy9hs1n-18" value="" style="endArrow=none;html=1;rounded=0;entryX=0;entryY=0.5;entryDx=0;entryDy=0;" parent="1" target="kDlvyfv9U4wQrPy9hs1n-10" edge="1">
          <mxGeometry width="50" height="50" relative="1" as="geometry">
            <mxPoint x="204" y="156" as="sourcePoint" />
            <mxPoint x="254" y="106" as="targetPoint" />
          </mxGeometry>
        </mxCell>
        <mxCell id="kDlvyfv9U4wQrPy9hs1n-19" value="" style="endArrow=none;html=1;rounded=0;exitX=0;exitY=0.5;exitDx=0;exitDy=0;" parent="1" source="kDlvyfv9U4wQrPy9hs1n-9" edge="1">
          <mxGeometry width="50" height="50" relative="1" as="geometry">
            <mxPoint x="244" y="155.66" as="sourcePoint" />
            <mxPoint x="204" y="155.66" as="targetPoint" />
          </mxGeometry>
        </mxCell>
        <mxCell id="kDlvyfv9U4wQrPy9hs1n-20" value="" style="endArrow=none;html=1;rounded=0;entryX=0;entryY=0.5;entryDx=0;entryDy=0;" parent="1" target="kDlvyfv9U4wQrPy9hs1n-9" edge="1">
          <mxGeometry width="50" height="50" relative="1" as="geometry">
            <mxPoint x="204" y="266" as="sourcePoint" />
            <mxPoint x="274" y="246" as="targetPoint" />
          </mxGeometry>
        </mxCell>
        <mxCell id="kDlvyfv9U4wQrPy9hs1n-29" value="Подача заявки на мероприятие" style="ellipse;whiteSpace=wrap;html=1;" parent="1" vertex="1">
          <mxGeometry x="249" y="236" width="120" height="60" as="geometry" />
        </mxCell>
        <mxCell id="kDlvyfv9U4wQrPy9hs1n-30" value="" style="endArrow=none;html=1;rounded=0;entryX=0;entryY=0.5;entryDx=0;entryDy=0;" parent="1" target="kDlvyfv9U4wQrPy9hs1n-29" edge="1">
          <mxGeometry width="50" height="50" relative="1" as="geometry">
            <mxPoint x="204" y="266" as="sourcePoint" />
            <mxPoint x="249" y="266" as="targetPoint" />
          </mxGeometry>
        </mxCell>
        <mxCell id="kDlvyfv9U4wQrPy9hs1n-32" value="Управление мероприятиями и вакансиями" style="ellipse;whiteSpace=wrap;html=1;" parent="1" vertex="1">
          <mxGeometry x="249" y="413.5" width="120" height="75" as="geometry" />
        </mxCell>
        <mxCell id="kDlvyfv9U4wQrPy9hs1n-33" value="Изменение информации о мероприятиях и вакансиях" style="ellipse;whiteSpace=wrap;html=1;" parent="1" vertex="1">
          <mxGeometry x="479" y="436" width="120" height="60" as="geometry" />
        </mxCell>
        <mxCell id="kDlvyfv9U4wQrPy9hs1n-34" value="Добавление информации о новых мероприятиях и вакансиях" style="ellipse;whiteSpace=wrap;html=1;" parent="1" vertex="1">
          <mxGeometry x="479" y="366" width="120" height="60" as="geometry" />
        </mxCell>
        <mxCell id="kDlvyfv9U4wQrPy9hs1n-35" value="Удаление информации о мероприятиях и вакансиях" style="ellipse;whiteSpace=wrap;html=1;" parent="1" vertex="1">
          <mxGeometry x="459" y="516" width="120" height="60" as="geometry" />
        </mxCell>
        <mxCell id="kDlvyfv9U4wQrPy9hs1n-43" value="" style="endArrow=none;html=1;rounded=0;entryX=0;entryY=0.5;entryDx=0;entryDy=0;" parent="1" target="kDlvyfv9U4wQrPy9hs1n-32" edge="1">
          <mxGeometry width="50" height="50" relative="1" as="geometry">
            <mxPoint x="204" y="450.83" as="sourcePoint" />
            <mxPoint x="254" y="450.58" as="targetPoint" />
          </mxGeometry>
        </mxCell>
        <mxCell id="kDlvyfv9U4wQrPy9hs1n-47" value="Просмотр списка заявок" style="ellipse;whiteSpace=wrap;html=1;" parent="1" vertex="1">
          <mxGeometry x="249" y="531" width="120" height="60" as="geometry" />
        </mxCell>
        <mxCell id="kDlvyfv9U4wQrPy9hs1n-48" value="Удаление заявки" style="ellipse;whiteSpace=wrap;html=1;" parent="1" vertex="1">
          <mxGeometry x="412.5" y="236" width="120" height="60" as="geometry" />
        </mxCell>
        <mxCell id="kDlvyfv9U4wQrPy9hs1n-51" value="Просмотр заявки" style="ellipse;whiteSpace=wrap;html=1;" parent="1" vertex="1">
          <mxGeometry x="249" y="316" width="120" height="60" as="geometry" />
        </mxCell>
        <mxCell id="kDlvyfv9U4wQrPy9hs1n-52" value="" style="endArrow=none;html=1;rounded=0;entryX=0;entryY=0.5;entryDx=0;entryDy=0;" parent="1" target="kDlvyfv9U4wQrPy9hs1n-51" edge="1">
          <mxGeometry width="50" height="50" relative="1" as="geometry">
            <mxPoint x="204" y="266" as="sourcePoint" />
            <mxPoint x="254" y="216" as="targetPoint" />
          </mxGeometry>
        </mxCell>
        <mxCell id="kDlvyfv9U4wQrPy9hs1n-53" value="Изменение данных заявки" style="ellipse;whiteSpace=wrap;html=1;" parent="1" vertex="1">
          <mxGeometry x="459" y="296" width="120" height="60" as="geometry" />
        </mxCell>
        <mxCell id="kDlvyfv9U4wQrPy9hs1n-55" value="" style="endArrow=classic;html=1;rounded=0;entryX=1;entryY=0.5;entryDx=0;entryDy=0;dashed=1;exitX=0;exitY=0.5;exitDx=0;exitDy=0;" parent="1" source="kDlvyfv9U4wQrPy9hs1n-48" target="kDlvyfv9U4wQrPy9hs1n-51" edge="1">
          <mxGeometry width="50" height="50" relative="1" as="geometry">
            <mxPoint x="657" y="226" as="sourcePoint" />
            <mxPoint x="519" y="266" as="targetPoint" />
          </mxGeometry>
        </mxCell>
        <mxCell id="kDlvyfv9U4wQrPy9hs1n-56" value="&amp;lt;&amp;lt;extend&amp;gt;&amp;gt;" style="edgeLabel;html=1;align=center;verticalAlign=middle;resizable=0;points=[];" parent="kDlvyfv9U4wQrPy9hs1n-55" vertex="1" connectable="0">
          <mxGeometry x="0.0188" relative="1" as="geometry">
            <mxPoint as="offset" />
          </mxGeometry>
        </mxCell>
        <mxCell id="kDlvyfv9U4wQrPy9hs1n-57" value="" style="endArrow=classic;html=1;rounded=0;entryX=1;entryY=0.5;entryDx=0;entryDy=0;exitX=0;exitY=0.5;exitDx=0;exitDy=0;dashed=1;" parent="1" source="kDlvyfv9U4wQrPy9hs1n-53" target="kDlvyfv9U4wQrPy9hs1n-51" edge="1">
          <mxGeometry width="50" height="50" relative="1" as="geometry">
            <mxPoint x="443" y="406" as="sourcePoint" />
            <mxPoint x="383" y="366" as="targetPoint" />
          </mxGeometry>
        </mxCell>
        <mxCell id="kDlvyfv9U4wQrPy9hs1n-58" value="&amp;lt;&amp;lt;extend&amp;gt;&amp;gt;" style="edgeLabel;html=1;align=center;verticalAlign=middle;resizable=0;points=[];" parent="kDlvyfv9U4wQrPy9hs1n-57" vertex="1" connectable="0">
          <mxGeometry x="0.0188" relative="1" as="geometry">
            <mxPoint as="offset" />
          </mxGeometry>
        </mxCell>
        <mxCell id="kDlvyfv9U4wQrPy9hs1n-59" value="" style="endArrow=none;html=1;rounded=0;entryX=0;entryY=0.5;entryDx=0;entryDy=0;" parent="1" target="kDlvyfv9U4wQrPy9hs1n-47" edge="1">
          <mxGeometry width="50" height="50" relative="1" as="geometry">
            <mxPoint x="199" y="561" as="sourcePoint" />
            <mxPoint x="254" y="506" as="targetPoint" />
          </mxGeometry>
        </mxCell>
        <mxCell id="kDlvyfv9U4wQrPy9hs1n-60" value="Обработка заявок" style="ellipse;whiteSpace=wrap;html=1;" parent="1" vertex="1">
          <mxGeometry x="409" y="586" width="120" height="60" as="geometry" />
        </mxCell>
        <mxCell id="kDlvyfv9U4wQrPy9hs1n-61" value="" style="endArrow=classic;html=1;rounded=0;entryX=1;entryY=0.5;entryDx=0;entryDy=0;exitX=0;exitY=0;exitDx=0;exitDy=0;dashed=1;" parent="1" source="kDlvyfv9U4wQrPy9hs1n-60" target="kDlvyfv9U4wQrPy9hs1n-47" edge="1">
          <mxGeometry width="50" height="50" relative="1" as="geometry">
            <mxPoint x="429" y="735" as="sourcePoint" />
            <mxPoint x="321" y="667" as="targetPoint" />
          </mxGeometry>
        </mxCell>
        <mxCell id="kDlvyfv9U4wQrPy9hs1n-62" value="&amp;lt;&amp;lt;extend&amp;gt;&amp;gt;" style="edgeLabel;html=1;align=center;verticalAlign=middle;resizable=0;points=[];" parent="kDlvyfv9U4wQrPy9hs1n-61" vertex="1" connectable="0">
          <mxGeometry x="0.0188" relative="1" as="geometry">
            <mxPoint as="offset" />
          </mxGeometry>
        </mxCell>
        <mxCell id="B9HfyMdcNh5BaTZksYrh-1" value="" style="endArrow=block;html=1;rounded=0;endFill=0;entryX=1;entryY=0.5;entryDx=0;entryDy=0;exitX=0;exitY=0.5;exitDx=0;exitDy=0;" parent="1" source="kDlvyfv9U4wQrPy9hs1n-33" target="kDlvyfv9U4wQrPy9hs1n-32" edge="1">
          <mxGeometry width="50" height="50" relative="1" as="geometry">
            <mxPoint x="433" y="478" as="sourcePoint" />
            <mxPoint x="483" y="428" as="targetPoint" />
          </mxGeometry>
        </mxCell>
        <mxCell id="B9HfyMdcNh5BaTZksYrh-2" value="" style="endArrow=block;html=1;rounded=0;endFill=0;entryX=1;entryY=1;entryDx=0;entryDy=0;exitX=0;exitY=0.5;exitDx=0;exitDy=0;" parent="1" source="kDlvyfv9U4wQrPy9hs1n-35" target="kDlvyfv9U4wQrPy9hs1n-32" edge="1">
          <mxGeometry width="50" height="50" relative="1" as="geometry">
            <mxPoint x="472" y="494" as="sourcePoint" />
            <mxPoint x="362" y="479" as="targetPoint" />
          </mxGeometry>
        </mxCell>
        <mxCell id="B9HfyMdcNh5BaTZksYrh-3" value="" style="endArrow=block;html=1;rounded=0;endFill=0;entryX=1;entryY=0;entryDx=0;entryDy=0;exitX=0;exitY=0.5;exitDx=0;exitDy=0;" parent="1" source="kDlvyfv9U4wQrPy9hs1n-34" target="kDlvyfv9U4wQrPy9hs1n-32" edge="1">
          <mxGeometry width="50" height="50" relative="1" as="geometry">
            <mxPoint x="455" y="447" as="sourcePoint" />
            <mxPoint x="365" y="352" as="targetPoint" />
          </mxGeometry>
        </mxCell>
        <mxCell id="B9HfyMdcNh5BaTZksYrh-4" value="" style="endArrow=block;html=1;rounded=0;endFill=0;entryX=1;entryY=0;entryDx=0;entryDy=0;exitX=0;exitY=0.5;exitDx=0;exitDy=0;" parent="1" source="kDlvyfv9U4wQrPy9hs1n-11" target="kDlvyfv9U4wQrPy9hs1n-10" edge="1">
          <mxGeometry width="50" height="50" relative="1" as="geometry">
            <mxPoint x="409" y="39" as="sourcePoint" />
            <mxPoint x="299" y="24" as="targetPoint" />
          </mxGeometry>
        </mxCell>
        <mxCell id="B9HfyMdcNh5BaTZksYrh-5" value="" style="endArrow=block;html=1;rounded=0;endFill=0;entryX=1;entryY=1;entryDx=0;entryDy=0;exitX=0;exitY=0.5;exitDx=0;exitDy=0;" parent="1" source="kDlvyfv9U4wQrPy9hs1n-12" target="kDlvyfv9U4wQrPy9hs1n-10" edge="1">
          <mxGeometry width="50" height="50" relative="1" as="geometry">
            <mxPoint x="421" y="147" as="sourcePoint" />
            <mxPoint x="343" y="166" as="targetPoint" />
          </mxGeometry>
        </mxCell>
      </root>
    </mxGraphModel>
  </diagram>
</mxfile>
